<svg xmlns="http://www.w3.org/2000/svg" viewBox="0 0 120 180"><defs><style>.a{fill:#fff;}.b{fill:#231f20;}</style></defs><title>esrb-everyone</title><polygon class="a" points="120 0 118.26 0 1.74 0 0 0 0 1.93 0 178.08 0 180 1.74 180 118.26 180 120 180 120 178.08 120 1.93 120 0 120 0"/><path class="b" d="M118.26,1.93V178.08H1.74V1.93H118.26"/><rect class="a" x="7.61" y="8.19" width="103.95" height="29.21"/><rect class="a" x="7.56" y="43.77" width="104.01" height="107.38"/><polygon class="a" points="7.58 171.72 7.58 157.47 28.46 157.47 28.46 160.8 15.97 160.8 15.97 162.84 26.54 162.84 26.54 166.17 15.97 166.17 15.97 168.4 28.95 168.4 28.95 171.72 7.58 171.72"/><path class="a" d="M46.69,161.62a1.58,1.58,0,0,0-1.21-1,7.35,7.35,0,0,0-2.17-.27c-1.85,0-2.67.3-2.67.83,0,2.11,14.72.79,14.72,6,0,3.31-5,4.92-12,4.92-6.76,0-11.16-2.2-11.34-4.77h8a2,2,0,0,0,1.39,1.12,7.83,7.83,0,0,0,2.39.36c2.1,0,3.49-.37,3.49-1,0-2.16-14.73-.68-14.73-6.11,0-3,4.69-4.55,11.1-4.55,7.1,0,10.34,2,10.95,4.51Z"/><path class="a" d="M67.92,163.65h3.3c2.6,0,4-.38,4-1.36s-1.42-1.49-3.38-1.49H67.92Zm0,3.11v5H59.53V157.47h12.1c8.52,0,11.33,1.3,11.33,4.07,0,1.65-1.31,3-4.3,3.5,2.7.54,4.34.88,4.34,3.76,0,1.85-.11,2.49.89,2.49v.43H75.38a5.45,5.45,0,0,1-.42-2.49c0-1.87-.57-2.47-4.48-2.47Z"/><path class="a" d="M96.5,160.8v2.39H100c1.67,0,2.88-.43,2.88-1.25,0-1.11-1.65-1.14-3.41-1.14Zm0,5v2.63h3.66c2.08,0,3.64-.24,3.64-1.31,0-1.24-2-1.32-4.63-1.32Zm-8.38,5.95V157.47h12.24c5.76,0,10.35.77,10.35,3.59,0,1.47-1.72,2.54-3.35,3.1,2.77.4,4.26,1.74,4.26,3.26,0,3.18-4.36,4.3-11,4.3Z"/><polyline class="b" points="15.33 68.59 78.28 49.78 84.59 69.72 53.06 79.13 55.64 87.29 84.77 78.59 91.07 98.54 61.95 107.22 64.67 115.81 97.24 106.08 103.55 126.01 39.58 145.12 15.33 68.59"/><path class="b" d="M10.49,31.07V14.53h8.93v2.54h-5.5v4.08H19v2.54H13.92v4.83H19.6v2.55Z"/><path class="b" d="M20.5,14.53h3.56l2.53,12h.05l2.85-12h3.38L28.54,31.07h-4Z"/><path class="b" d="M34.41,31.07V14.53h8.92v2.54h-5.5v4.08H42.9v2.54H37.83v4.83h5.68v2.55Z"/><path class="b" d="M49.08,31.07H45.66V14.53H52a3.66,3.66,0,0,1,2.8,1.09,4.62,4.62,0,0,1,1,3.23,5.07,5.07,0,0,1-.68,2.69,3.25,3.25,0,0,1-2.35,1.37V23c.18,0,.44.07.77.14a2.46,2.46,0,0,1,1,.41,2.72,2.72,0,0,1,.84.95,3.42,3.42,0,0,1,.37,1.75c0,.26,0,.63,0,1.1s0,1,0,1.47.08,1,.13,1.39a3.7,3.7,0,0,0,.19.9H52.77a4,4,0,0,1-.35-1.58c0-.55,0-1.1,0-1.63s0-1,0-1.4a3.15,3.15,0,0,0-.23-1.16,1.64,1.64,0,0,0-.72-.78,3,3,0,0,0-1.49-.3h-.88Zm0-9.4H50.6a1.43,1.43,0,0,0,.84-.23,1.67,1.67,0,0,0,.54-.58,2.56,2.56,0,0,0,.28-.79,5,5,0,0,0,.08-.83,2.43,2.43,0,0,0-.46-1.68,1.71,1.71,0,0,0-1.28-.49H49.08Z"/><path class="b" d="M61,25.34,56.71,14.53h3.74l2.44,7,2.61-7H69L64.41,25.34v5.73H61Z"/><path class="b" d="M76.05,31.34a6.18,6.18,0,0,1-3.26-.72,4.19,4.19,0,0,1-1.68-1.93A8.17,8.17,0,0,1,70.5,26c-.06-1-.09-2.08-.09-3.16s0-2.16.09-3.19a8.05,8.05,0,0,1,.61-2.72A4.22,4.22,0,0,1,72.79,15a7.74,7.74,0,0,1,6.52,0A4.22,4.22,0,0,1,81,16.89a8.3,8.3,0,0,1,.61,2.72c.06,1,.09,2.09.09,3.19s0,2.13-.09,3.16A8.42,8.42,0,0,1,81,28.69a4.19,4.19,0,0,1-1.68,1.93A6.18,6.18,0,0,1,76.05,31.34Zm0-2.47a1.77,1.77,0,0,0,1.16-.36,2.27,2.27,0,0,0,.65-1.09,8.4,8.4,0,0,0,.3-1.89c0-.77.07-1.68.07-2.73s0-2-.07-2.74a8.49,8.49,0,0,0-.3-1.89,2.27,2.27,0,0,0-.65-1.09,1.82,1.82,0,0,0-1.16-.35,1.8,1.8,0,0,0-1.16.35,2.19,2.19,0,0,0-.65,1.09,8.49,8.49,0,0,0-.3,1.89c0,.77-.07,1.68-.07,2.74s0,2,.07,2.73a8.4,8.4,0,0,0,.3,1.89,2.19,2.19,0,0,0,.65,1.09A1.75,1.75,0,0,0,76.05,28.87Z"/><path class="b" d="M84.43,31.07V14.53h4.62L93.39,26h0V14.53h3.2V31.07H92.13L87.67,19h0v12.1Z"/><path class="b" d="M99.5,31.07V14.53h8.93v2.54h-5.5v4.08H108v2.54h-5.07v4.83h5.68v2.55Z"/></svg>